<mxfile host="app.diagrams.net" agent="Mozilla/5.0 (Windows NT 10.0; Win64; x64) AppleWebKit/537.36 (KHTML, like Gecko) Chrome/136.0.0.0 Safari/537.36" version="27.0.6">
  <diagram name="Page-1" id="UW2ImWDbLDdc1KYBRxbe">
    <mxGraphModel dx="1226" dy="661" grid="1" gridSize="10" guides="1" tooltips="1" connect="1" arrows="1" fold="1" page="1" pageScale="1" pageWidth="850" pageHeight="1100" math="0" shadow="0">
      <root>
        <mxCell id="0" />
        <mxCell id="1" parent="0" />
        <mxCell id="8UEbDqk-dIBro4yHKkm--91" value="" style="edgeStyle=orthogonalEdgeStyle;rounded=0;orthogonalLoop=1;jettySize=auto;html=1;" edge="1" parent="1" source="8UEbDqk-dIBro4yHKkm--92" target="8UEbDqk-dIBro4yHKkm--96">
          <mxGeometry relative="1" as="geometry" />
        </mxCell>
        <mxCell id="8UEbDqk-dIBro4yHKkm--92" value="&lt;div&gt;&lt;b&gt;&lt;br&gt;&lt;/b&gt;&lt;/div&gt;&lt;b&gt;Upravljanje korisnicima:&lt;/b&gt;&lt;div&gt;Registracija, evidencija korisnika i uređivanje podataka&lt;/div&gt;" style="rounded=1;whiteSpace=wrap;html=1;" vertex="1" parent="1">
          <mxGeometry x="360" y="510" width="160" height="90" as="geometry" />
        </mxCell>
        <mxCell id="8UEbDqk-dIBro4yHKkm--93" value="&lt;b&gt;P1&lt;/b&gt;" style="rounded=1;whiteSpace=wrap;html=1;" vertex="1" parent="1">
          <mxGeometry x="360" y="510" width="160" height="20" as="geometry" />
        </mxCell>
        <mxCell id="8UEbDqk-dIBro4yHKkm--94" value="" style="edgeStyle=orthogonalEdgeStyle;rounded=0;orthogonalLoop=1;jettySize=auto;html=1;" edge="1" parent="1" source="8UEbDqk-dIBro4yHKkm--95" target="8UEbDqk-dIBro4yHKkm--101">
          <mxGeometry relative="1" as="geometry" />
        </mxCell>
        <mxCell id="8UEbDqk-dIBro4yHKkm--95" value="&lt;div&gt;&lt;br&gt;&lt;/div&gt;&lt;b&gt;Upravljanje obavijestima i događajima:&amp;nbsp;&lt;/b&gt;&lt;div&gt;Unos i prikaz obavijesti, prijave korisnika na događaje&lt;/div&gt;" style="rounded=1;whiteSpace=wrap;html=1;" vertex="1" parent="1">
          <mxGeometry x="360" y="660" width="160" height="100" as="geometry" />
        </mxCell>
        <mxCell id="8UEbDqk-dIBro4yHKkm--96" value="&lt;b&gt;P2&lt;/b&gt;" style="rounded=1;whiteSpace=wrap;html=1;" vertex="1" parent="1">
          <mxGeometry x="360" y="660" width="160" height="20" as="geometry" />
        </mxCell>
        <mxCell id="8UEbDqk-dIBro4yHKkm--97" value="" style="edgeStyle=orthogonalEdgeStyle;rounded=0;orthogonalLoop=1;jettySize=auto;html=1;" edge="1" parent="1" source="8UEbDqk-dIBro4yHKkm--100" target="8UEbDqk-dIBro4yHKkm--106">
          <mxGeometry relative="1" as="geometry" />
        </mxCell>
        <mxCell id="8UEbDqk-dIBro4yHKkm--98" value="" style="edgeStyle=none;curved=1;rounded=0;orthogonalLoop=1;jettySize=auto;html=1;fontSize=12;startSize=8;endSize=8;exitX=0;exitY=0.25;exitDx=0;exitDy=0;" edge="1" parent="1" source="8UEbDqk-dIBro4yHKkm--100" target="8UEbDqk-dIBro4yHKkm--115">
          <mxGeometry relative="1" as="geometry">
            <mxPoint x="350" y="900" as="sourcePoint" />
          </mxGeometry>
        </mxCell>
        <mxCell id="8UEbDqk-dIBro4yHKkm--99" value="Novi zahtjevi korisnika&amp;nbsp;&lt;div&gt;za obradu&lt;/div&gt;" style="edgeLabel;html=1;align=center;verticalAlign=middle;resizable=0;points=[];fontSize=12;" vertex="1" connectable="0" parent="8UEbDqk-dIBro4yHKkm--98">
          <mxGeometry x="-0.2151" y="1" relative="1" as="geometry">
            <mxPoint as="offset" />
          </mxGeometry>
        </mxCell>
        <mxCell id="8UEbDqk-dIBro4yHKkm--100" value="&lt;b&gt;Obrada zahtjeva korisnika:&lt;/b&gt;&lt;div&gt;Zaprimanje i obrada zahtjeva&amp;nbsp;&lt;/div&gt;" style="rounded=1;whiteSpace=wrap;html=1;" vertex="1" parent="1">
          <mxGeometry x="360" y="830" width="160" height="80" as="geometry" />
        </mxCell>
        <mxCell id="8UEbDqk-dIBro4yHKkm--101" value="&lt;b&gt;P3&lt;/b&gt;" style="rounded=1;whiteSpace=wrap;html=1;" vertex="1" parent="1">
          <mxGeometry x="360" y="820" width="160" height="20" as="geometry" />
        </mxCell>
        <mxCell id="8UEbDqk-dIBro4yHKkm--102" value="" style="edgeStyle=orthogonalEdgeStyle;rounded=0;orthogonalLoop=1;jettySize=auto;html=1;" edge="1" parent="1" source="8UEbDqk-dIBro4yHKkm--105" target="8UEbDqk-dIBro4yHKkm--110">
          <mxGeometry relative="1" as="geometry" />
        </mxCell>
        <mxCell id="8UEbDqk-dIBro4yHKkm--103" value="" style="edgeStyle=none;curved=1;rounded=0;orthogonalLoop=1;jettySize=auto;html=1;fontSize=12;startSize=8;endSize=8;" edge="1" parent="1">
          <mxGeometry relative="1" as="geometry">
            <mxPoint x="360" y="1040" as="sourcePoint" />
            <mxPoint x="220" y="1040" as="targetPoint" />
          </mxGeometry>
        </mxCell>
        <mxCell id="8UEbDqk-dIBro4yHKkm--104" value="Potvrde o&amp;nbsp;&lt;div&gt;izvršenim akcijama&lt;/div&gt;" style="edgeLabel;html=1;align=center;verticalAlign=middle;resizable=0;points=[];fontSize=12;" vertex="1" connectable="0" parent="8UEbDqk-dIBro4yHKkm--103">
          <mxGeometry x="0.0286" relative="1" as="geometry">
            <mxPoint as="offset" />
          </mxGeometry>
        </mxCell>
        <mxCell id="8UEbDqk-dIBro4yHKkm--105" value="&lt;div&gt;&lt;b&gt;&lt;br&gt;&lt;/b&gt;&lt;/div&gt;&lt;b&gt;Administracija sustava:&lt;/b&gt;&lt;div&gt;Upravljanje pravima pristupa,&lt;/div&gt;&lt;div&gt;unos obavijesti,&amp;nbsp;&lt;span style=&quot;background-color: transparent; color: light-dark(rgb(0, 0, 0), rgb(255, 255, 255));&quot;&gt;upravljanje&lt;/span&gt;&lt;/div&gt;&lt;div&gt;ulogama&lt;/div&gt;" style="rounded=1;whiteSpace=wrap;html=1;" vertex="1" parent="1">
          <mxGeometry x="360" y="970" width="160" height="100" as="geometry" />
        </mxCell>
        <mxCell id="8UEbDqk-dIBro4yHKkm--106" value="&lt;b&gt;P4&lt;/b&gt;" style="rounded=1;whiteSpace=wrap;html=1;" vertex="1" parent="1">
          <mxGeometry x="360" y="970" width="160" height="20" as="geometry" />
        </mxCell>
        <mxCell id="8UEbDqk-dIBro4yHKkm--107" value="" style="edgeStyle=none;curved=1;rounded=0;orthogonalLoop=1;jettySize=auto;html=1;fontSize=12;startSize=8;endSize=8;entryX=1;entryY=0.75;entryDx=0;entryDy=0;" edge="1" parent="1" source="8UEbDqk-dIBro4yHKkm--109" target="8UEbDqk-dIBro4yHKkm--124">
          <mxGeometry relative="1" as="geometry" />
        </mxCell>
        <mxCell id="8UEbDqk-dIBro4yHKkm--108" value="Status sustava,&amp;nbsp;&lt;div&gt;potvrde o backupu,&lt;/div&gt;&lt;div&gt;izvještaji o greškama&lt;/div&gt;" style="edgeLabel;html=1;align=center;verticalAlign=middle;resizable=0;points=[];fontSize=12;" vertex="1" connectable="0" parent="8UEbDqk-dIBro4yHKkm--107">
          <mxGeometry x="-0.1143" relative="1" as="geometry">
            <mxPoint x="-9" y="15" as="offset" />
          </mxGeometry>
        </mxCell>
        <mxCell id="8UEbDqk-dIBro4yHKkm--109" value="&lt;b&gt;Održavanje i sigurnosne kopije:&lt;/b&gt;&lt;div&gt;Backup podataka, ažuriranja, nadzor rada sustava&lt;/div&gt;" style="rounded=1;whiteSpace=wrap;html=1;" vertex="1" parent="1">
          <mxGeometry x="360" y="1160" width="160" height="90" as="geometry" />
        </mxCell>
        <mxCell id="8UEbDqk-dIBro4yHKkm--110" value="&lt;b&gt;P5&lt;/b&gt;" style="rounded=1;whiteSpace=wrap;html=1;" vertex="1" parent="1">
          <mxGeometry x="360" y="1150" width="160" height="20" as="geometry" />
        </mxCell>
        <mxCell id="8UEbDqk-dIBro4yHKkm--111" value="" style="edgeStyle=orthogonalEdgeStyle;rounded=0;orthogonalLoop=1;jettySize=auto;html=1;" edge="1" parent="1" source="8UEbDqk-dIBro4yHKkm--115">
          <mxGeometry relative="1" as="geometry">
            <mxPoint x="360" y="560" as="targetPoint" />
          </mxGeometry>
        </mxCell>
        <mxCell id="8UEbDqk-dIBro4yHKkm--112" value="Pregled korisnika" style="edgeLabel;html=1;align=center;verticalAlign=middle;resizable=0;points=[];" vertex="1" connectable="0" parent="8UEbDqk-dIBro4yHKkm--111">
          <mxGeometry x="-0.0833" y="4" relative="1" as="geometry">
            <mxPoint y="4" as="offset" />
          </mxGeometry>
        </mxCell>
        <mxCell id="8UEbDqk-dIBro4yHKkm--113" value="" style="edgeStyle=orthogonalEdgeStyle;rounded=0;orthogonalLoop=1;jettySize=auto;html=1;entryX=0;entryY=1;entryDx=0;entryDy=0;" edge="1" parent="1" source="8UEbDqk-dIBro4yHKkm--115" target="8UEbDqk-dIBro4yHKkm--96">
          <mxGeometry relative="1" as="geometry">
            <mxPoint x="290" y="680" as="targetPoint" />
            <Array as="points">
              <mxPoint x="160" y="680" />
            </Array>
          </mxGeometry>
        </mxCell>
        <mxCell id="8UEbDqk-dIBro4yHKkm--114" value="Unos i ažuriranje obavijesti" style="edgeLabel;html=1;align=center;verticalAlign=middle;resizable=0;points=[];" vertex="1" connectable="0" parent="8UEbDqk-dIBro4yHKkm--113">
          <mxGeometry x="0.3752" relative="1" as="geometry">
            <mxPoint as="offset" />
          </mxGeometry>
        </mxCell>
        <mxCell id="8UEbDqk-dIBro4yHKkm--115" value="&lt;b&gt;DJELATNICI&lt;/b&gt;" style="rounded=0;whiteSpace=wrap;html=1;" vertex="1" parent="1">
          <mxGeometry x="100" y="530" width="120" height="60" as="geometry" />
        </mxCell>
        <mxCell id="8UEbDqk-dIBro4yHKkm--116" value="" style="edgeStyle=orthogonalEdgeStyle;rounded=0;orthogonalLoop=1;jettySize=auto;html=1;" edge="1" parent="1" source="8UEbDqk-dIBro4yHKkm--118">
          <mxGeometry relative="1" as="geometry">
            <mxPoint x="360" y="859" as="targetPoint" />
          </mxGeometry>
        </mxCell>
        <mxCell id="8UEbDqk-dIBro4yHKkm--134" value="Prijava korisnika&lt;div&gt;na hodočašće&lt;/div&gt;" style="edgeLabel;html=1;align=center;verticalAlign=middle;resizable=0;points=[];" vertex="1" connectable="0" parent="8UEbDqk-dIBro4yHKkm--116">
          <mxGeometry x="-0.0678" y="2" relative="1" as="geometry">
            <mxPoint as="offset" />
          </mxGeometry>
        </mxCell>
        <mxCell id="8UEbDqk-dIBro4yHKkm--118" value="&lt;b&gt;KORISNICI&lt;/b&gt;" style="rounded=0;whiteSpace=wrap;html=1;" vertex="1" parent="1">
          <mxGeometry x="100" y="830" width="120" height="60" as="geometry" />
        </mxCell>
        <mxCell id="8UEbDqk-dIBro4yHKkm--119" value="" style="edgeStyle=orthogonalEdgeStyle;rounded=0;orthogonalLoop=1;jettySize=auto;html=1;entryX=0;entryY=0.25;entryDx=0;entryDy=0;" edge="1" parent="1" source="8UEbDqk-dIBro4yHKkm--121" target="8UEbDqk-dIBro4yHKkm--105">
          <mxGeometry relative="1" as="geometry">
            <mxPoint x="320" y="1020" as="targetPoint" />
            <Array as="points">
              <mxPoint x="260" y="995" />
              <mxPoint x="260" y="995" />
            </Array>
          </mxGeometry>
        </mxCell>
        <mxCell id="8UEbDqk-dIBro4yHKkm--120" value="Upravljanje sustavom&lt;div&gt;i pristupima&lt;/div&gt;" style="edgeLabel;html=1;align=center;verticalAlign=middle;resizable=0;points=[];" vertex="1" connectable="0" parent="8UEbDqk-dIBro4yHKkm--119">
          <mxGeometry x="-0.1086" y="2" relative="1" as="geometry">
            <mxPoint x="8" y="7" as="offset" />
          </mxGeometry>
        </mxCell>
        <mxCell id="8UEbDqk-dIBro4yHKkm--121" value="&lt;b&gt;ADMINISTRATOR&lt;/b&gt;" style="rounded=0;whiteSpace=wrap;html=1;" vertex="1" parent="1">
          <mxGeometry x="100" y="990" width="120" height="60" as="geometry" />
        </mxCell>
        <mxCell id="8UEbDqk-dIBro4yHKkm--122" value="" style="edgeStyle=none;curved=1;rounded=0;orthogonalLoop=1;jettySize=auto;html=1;fontSize=12;startSize=8;endSize=8;entryX=-0.017;entryY=0.34;entryDx=0;entryDy=0;entryPerimeter=0;exitX=0.833;exitY=0.177;exitDx=0;exitDy=0;exitPerimeter=0;" edge="1" parent="1" source="8UEbDqk-dIBro4yHKkm--124">
          <mxGeometry relative="1" as="geometry">
            <mxPoint x="210" y="1171" as="sourcePoint" />
            <mxPoint x="360" y="1170.6" as="targetPoint" />
            <Array as="points">
              <mxPoint x="292.72" y="1170" />
            </Array>
          </mxGeometry>
        </mxCell>
        <mxCell id="8UEbDqk-dIBro4yHKkm--123" value="Ažuriranja softvera,&lt;div&gt;zadaci održavanja&lt;/div&gt;" style="edgeLabel;html=1;align=center;verticalAlign=middle;resizable=0;points=[];fontSize=12;" vertex="1" connectable="0" parent="8UEbDqk-dIBro4yHKkm--122">
          <mxGeometry x="-0.2529" y="1" relative="1" as="geometry">
            <mxPoint x="33" y="1" as="offset" />
          </mxGeometry>
        </mxCell>
        <mxCell id="8UEbDqk-dIBro4yHKkm--124" value="&lt;b&gt;ODRŽAVANJE SUSTAVA&lt;/b&gt;" style="rounded=0;whiteSpace=wrap;html=1;" vertex="1" parent="1">
          <mxGeometry x="80" y="1160" width="120" height="60" as="geometry" />
        </mxCell>
        <mxCell id="8UEbDqk-dIBro4yHKkm--125" value="&lt;b&gt;Baza podataka&lt;/b&gt;" style="shape=cylinder3;whiteSpace=wrap;html=1;boundedLbl=1;backgroundOutline=1;size=15;fillColor=#dae8fc;strokeColor=#6c8ebf;" vertex="1" parent="1">
          <mxGeometry x="650" y="1040" width="80" height="100" as="geometry" />
        </mxCell>
        <mxCell id="8UEbDqk-dIBro4yHKkm--126" value="" style="endArrow=classic;html=1;rounded=0;fontSize=12;startSize=8;endSize=8;curved=1;entryX=0.145;entryY=0;entryDx=0;entryDy=4.35;entryPerimeter=0;exitX=1;exitY=0.75;exitDx=0;exitDy=0;" edge="1" parent="1" source="8UEbDqk-dIBro4yHKkm--100" target="8UEbDqk-dIBro4yHKkm--125">
          <mxGeometry width="50" height="50" relative="1" as="geometry">
            <mxPoint x="410" y="1090" as="sourcePoint" />
            <mxPoint x="459.99999999999994" y="1040" as="targetPoint" />
          </mxGeometry>
        </mxCell>
        <mxCell id="8UEbDqk-dIBro4yHKkm--127" value="Dohvaća podatke&amp;nbsp;&lt;div&gt;o župljanima&lt;/div&gt;" style="edgeLabel;html=1;align=center;verticalAlign=middle;resizable=0;points=[];fontSize=12;" vertex="1" connectable="0" parent="8UEbDqk-dIBro4yHKkm--126">
          <mxGeometry x="-0.095" y="-2" relative="1" as="geometry">
            <mxPoint x="7" as="offset" />
          </mxGeometry>
        </mxCell>
        <mxCell id="8UEbDqk-dIBro4yHKkm--128" value="" style="endArrow=classic;html=1;rounded=0;fontSize=12;startSize=8;endSize=8;curved=1;entryX=0;entryY=0;entryDx=0;entryDy=32.5;entryPerimeter=0;" edge="1" parent="1" target="8UEbDqk-dIBro4yHKkm--125">
          <mxGeometry width="50" height="50" relative="1" as="geometry">
            <mxPoint x="520" y="1200" as="sourcePoint" />
            <mxPoint x="570" y="1150" as="targetPoint" />
          </mxGeometry>
        </mxCell>
        <mxCell id="8UEbDqk-dIBro4yHKkm--129" value="Backup baze" style="edgeLabel;html=1;align=center;verticalAlign=middle;resizable=0;points=[];fontSize=12;" vertex="1" connectable="0" parent="8UEbDqk-dIBro4yHKkm--128">
          <mxGeometry x="-0.1998" y="-2" relative="1" as="geometry">
            <mxPoint as="offset" />
          </mxGeometry>
        </mxCell>
        <mxCell id="8UEbDqk-dIBro4yHKkm--130" value="" style="endArrow=classic;html=1;rounded=0;fontSize=12;startSize=8;endSize=8;curved=1;exitX=1.005;exitY=0.678;exitDx=0;exitDy=0;exitPerimeter=0;" edge="1" parent="1" source="8UEbDqk-dIBro4yHKkm--105">
          <mxGeometry width="50" height="50" relative="1" as="geometry">
            <mxPoint x="410" y="1090" as="sourcePoint" />
            <mxPoint x="650" y="1070" as="targetPoint" />
          </mxGeometry>
        </mxCell>
        <mxCell id="8UEbDqk-dIBro4yHKkm--131" value="" style="endArrow=classic;html=1;rounded=0;fontSize=12;startSize=8;endSize=8;curved=1;entryX=0.5;entryY=0;entryDx=0;entryDy=0;entryPerimeter=0;exitX=1;exitY=0.75;exitDx=0;exitDy=0;" edge="1" parent="1" source="8UEbDqk-dIBro4yHKkm--95" target="8UEbDqk-dIBro4yHKkm--125">
          <mxGeometry width="50" height="50" relative="1" as="geometry">
            <mxPoint x="410" y="1020" as="sourcePoint" />
            <mxPoint x="459.99999999999994" y="970" as="targetPoint" />
          </mxGeometry>
        </mxCell>
        <mxCell id="8UEbDqk-dIBro4yHKkm--132" value="Pohrana i dohvat&amp;nbsp;&lt;div&gt;podataka&lt;/div&gt;" style="edgeLabel;html=1;align=center;verticalAlign=middle;resizable=0;points=[];fontSize=12;" vertex="1" connectable="0" parent="8UEbDqk-dIBro4yHKkm--131">
          <mxGeometry x="-0.0027" y="6" relative="1" as="geometry">
            <mxPoint y="-24" as="offset" />
          </mxGeometry>
        </mxCell>
      </root>
    </mxGraphModel>
  </diagram>
</mxfile>
